# AST/ASF file generated using VICON BodyLanguage
# -----------------------------------------------
:version 1.10
:name VICON
:units
  mass 1.0
  length 0.45
  angle deg
:documentation
   .ast/.asf automatically generated from VICON data using
   VICON BodyBuilder and BodyLanguage model FoxedUp or BRILLIANT.MOD
:root
   order TX TY TZ RX RY RZ
   axis XYZ
   position 0 0 0  
   orientation 0 0 0 
:bonedata
  begin
     id 1 
     name lhipjoint
     direction 0.621563 -0.714088 0.322083 
     length 2.21591 
     axis 0 0 0  XYZ
  end
  begin
     id 2 
     name lfemur
     direction 0.34202 -0.939693 0  
     length 6.84027  
     axis 0 0 20  XYZ
    dof rx ry rz
    limits (-160.0 20.0)
           (-70.0 70.0)
           (-60.0 70.0)
  end
  begin
     id 3 
     name ltibia
     direction 0.34202 -0.939693 0   
     length 6.74005   
     axis 0 0 20   XYZ
    dof rx
    limits (-10.0 170.0)
  end
  begin
     id 4 
     name lfoot
     direction 0.0348332 -0.0960526 0.994767   
     length 1.54672   
     axis -90 7.62852e-016 20   XYZ
    dof rx rz
    limits (-45.0 90.0)
           (-70.0 20.0)
  end
  begin
     id 5 
     name ltoes
     direction 1.53538e-011 -4.22089e-011 1   
     length 0.792077   
     axis -90 7.62852e-016 20   XYZ
    dof rx
    limits (-90.0 20.0)
  end
  begin
     id 6 
     name rhipjoint
     direction -0.648389 -0.693984 0.313015   
     length 2.2801  
     axis 0 0 0  XYZ 
  end
  begin
     id 7 
     name rfemur
     direction -0.34202 -0.939693 0   
     length 6.62341   
     axis 0 0 -20   XYZ
    dof rx ry rz
    limits (-160.0 20.0)
           (-70.0 70.0)
           (-70.0 60.0)
  end
  begin
     id 8 
     name rtibia
     direction -0.34202 -0.939693 0   
     length 6.63811   
     axis 0 0 -20   XYZ
    dof rx
    limits (-10.0 170.0)
 end
 begin
     id 9 
     name rfoot
     direction -0.0578404 -0.158915 0.985596   
     length 1.64992  
     axis -90 -7.62852e-016 -20   XYZ
    dof rx rz
    limits (-45.0 90.0)
           (-20.0 70.0)
  end
  begin
     id 10 
     name rtoes
     direction -1.53571e-011 -4.21911e-011 1   
     length 0.839909   
     axis -90 -7.62852e-016 -20   XYZ
    dof rx
    limits (-90.0 20.0)
  end
  begin
     id 11 
     name lowerback
     direction 0.000554472 0.999997 -0.00226605   
     length 1.81878   
     axis 0 0 0   XYZ
    dof rx ry rz
    limits (-20.0 45.0)
           (-30.0 30.0)
           (-30.0 30.0)
  end
  begin
     id 12 
     name upperback
     direction 0.00177008 0.999761 -0.021771   
     length 1.81977   
     axis 0 0 0   XYZ
    dof rx ry rz
    limits (-20.0 45.0)
           (-30.0 30.0)
           (-30.0 30.0)
  end
  begin
     id 13 
     name thorax
     direction 0.00134147 0.999799 -0.0200243   
     length 1.81422   
     axis 0 0 0   XYZ
    dof rx ry rz
    limits (-20.0 45.0)
           (-30.0 30.0)
           (-30.0 30.0)
  end
  begin
     id 14 
     name lowerneck
     direction -0.0819714 0.987506 0.134583   
     length 1.68295   
     axis 0 0 0   XYZ
    dof rx ry rz
    limits (-20.0 45.0)
           (-30.0 30.0)
           (-30.0 30.0)
  end
  begin
     id 15 
     name upperneck
     direction 0.0867129 0.969666 -0.228538   
     length 1.71188   
     axis 0 0 0   XYZ
    dof rx ry rz
    limits (-20.0 45.0)
           (-30.0 30.0)
           (-30.0 30.0)
  end
  begin
     id 16
     name head
     direction 0.023699 0.995021 -0.0968101  
     length 1.73365  
     axis 0 0 0   XYZ
    dof rx ry rz
    limits (-20.0 45.0)
           (-30.0 30.0)
           (-30.0 30.0)
  end
  begin
     id 17 
     name lclavicle
     direction 0.912847 0.398248 0.090054  
     length 3.56518  
     axis 0 0 0   XYZ
    dof ry rz
    limits (-20.0 10.0)
           (0.0 20.0)
  end
  begin
     id 18 
     name lhumerus
     direction 1 -4.48961e-011 -4.05442e-028   
     length 4.05444   
     axis 180 -30 -90   XYZ
    dof rx ry rz
    limits (-60.0 90.0)
           (-90.0 90.0)
           (-90.0 90.0)
  end
  begin
     id 19
     name lradius
     direction 1 -4.4897e-011 1.54979e-027   
     length 3.21205   
     axis 180 -30 -90   XYZ
    dof rx
    limits (-10.0 170.0)
  end
  begin
     id 20
     name lwrist
     direction 1 -4.48979e-011 1.55564e-027   
     length 1.60602   
     axis -1.61768e-015 90 90   XYZ
    dof ry
    limits (-180.0 0.0)
 end
  begin
     id 21 
     name lhand
     direction 1 -4.48877e-011 3.11128e-027   
     length 0.707407   
     axis -1.98526e-015 90 90   XYZ
    dof rx rz
    limits (-90.0 90.0)
           (-45.0 45.0)
  end
  begin
     id 22 
     name lfingers
     direction 1 -4.49016e-011 6.22255e-027   
     length 0.57033   
     axis -3.97052e-015 90 90   XYZ
    dof rx
    limits (0.0 90.0)
  end
  begin
     id 23
     name lthumb
     direction 0.707107 -6.35011e-011 0.707107   
     length 0.818883   
     axis -90 45 2.85299e-015   XYZ
    dof rx rz
    limits (-45.0 45.0)
           (-45.0 45.0)
  end
  begin
     id 24 
     name rclavicle
     direction -0.930415 0.353791 0.0957082   
     length 3.54688  
     axis 0 0 0   XYZ 
    dof ry rz
    limits (-10.0 20.0)
           (-20.0 0.0)
  end
  begin
     id 25 
     name rhumerus
     direction -1 -4.48952e-011 -8.4136e-018  
     length 3.74048   
     axis 180 30 90   XYZ
    dof rx ry rz
    limits (-90.0 60.0)
           (-90.0 90.0)
           (-90.0 90.0)
  end
  begin
     id 26 
     name rradius
     direction -1 -4.48964e-011 1.66692e-027   
     length 3.1603   
     axis 180 30 90   XYZ
    dof rx
    limits (-10.0 170.0)
  end
  begin
     id 27 
     name rwrist
     direction -1 -4.49008e-011 1.55564e-027   
     length 1.58015   
     axis -1.61768e-015 -90 -90   XYZ
    dof ry
    limits (-180.0 0.0)
  end
  begin
     id 28
     name rhand
     direction -1 -4.48922e-011 3.11128e-027   
     length 0.717028   
     axis -1.98526e-015 -90 -90   XYZ
    dof rx rz
    limits (-90.0 90.0)
           (-45.0 45.0)
  end
  begin
     id 29
     name rfingers
     direction -1 -4.49002e-011 6.22255e-027   
     length 0.578086   
     axis -3.97052e-015 -90 -90   XYZ
    dof rx
    limits (0.0 90.0)
  end
  begin
     id 30
     name rthumb
     direction -0.707107 -6.34899e-011 0.707107   
     length 0.83002   
     axis -90 -45 -2.85299e-015   XYZ
    dof rx rz
    limits (-45.0 45.0)
           (-45.0 45.0)
  end
:hierarchy
  begin
    root lhipjoint rhipjoint lowerback
    lhipjoint lfemur
    lfemur ltibia
    ltibia lfoot
    lfoot ltoes
    rhipjoint rfemur
    rfemur rtibia
    rtibia rfoot
    rfoot rtoes
    lowerback upperback
    upperback thorax
    thorax lowerneck lclavicle rclavicle
    lowerneck upperneck
    upperneck head
    lclavicle lhumerus
    lhumerus lradius
    lradius lwrist
    lwrist lhand lthumb
    lhand lfingers
    rclavicle rhumerus
    rhumerus rradius
    rradius rwrist
    rwrist rhand rthumb
    rhand rfingers
  end

#!OML:ASF G:\acrobat\cartwheel_test\acrobat_wednesday\Session 1\acrobatwednesday.ASF
:FULLY-SPECIFIED
:DEGREES
132
root 14.8656 12.6753 -0.0591822 143.968 87.8024 131.509
lowerback 14.469 -0.999685 0.563928
upperback 7.76786 -0.816773 -0.251681
thorax 0.065798 -0.206158 -0.465148
lowerneck -16.4775 -1.92732 -5.40514
upperneck 1.40689 -1.37986 0.318834
head 3.44642 -0.665338 0.970235
rclavicle -1.16289e-014 -2.87244e-014
rhumerus 3.64498 -28.3233 -95.291
rradius 47.638
rwrist 94.1992
rhand -40.7093 8.4466
rfingers 7.12502
rthumb -13.6514 -21.0857
lclavicle -1.16289e-014 -2.87244e-014
lhumerus -176.703 170.404 -87.3692
lradius 32.1515
lwrist 44.8057
lhand 79.3688 -268.076
lfingers 7.12502
lthumb 68.2371 -177.422
rfemur -71.0427 -0.733167 19.5399
rtibia 85.0899
rfoot -5.17768 17.5262
rtoes -20.0871
lfemur -73.6212 -3.21745 -22.8958
ltibia 85.9741
lfoot 13.0175 3.74546
ltoes -39.6431
133
root 14.6834 12.4761 -0.0828326 150.864 87.9386 142.728
lowerback 14.7206 -0.758819 0.566999
upperback 6.97376 -0.552711 -0.192323
thorax -0.900976 -0.102103 -0.439324
lowerneck -16.5459 -2.00661 -5.5995
upperneck -0.062861 -1.41729 0.368706
head 2.94381 -0.634718 1.01591
rclavicle 4.96962e-016 1.22253e-014
rhumerus 21.1484 -26.3425 -104.895
rradius 45.4722
rwrist 137.383
rhand -43.0413 -31.0331
rfingers 7.12502
rthumb -15.8982 -60.4005
lclavicle 4.96962e-016 1.22253e-014
lhumerus -159.692 171.966 -81.8508
lradius 41.6175
lwrist 43.5942
lhand 65.9568 -384.381
lfingers 7.12502
lthumb 74.7743 -78.6931
rfemur -67.989 -0.0117027 19.83
rtibia 86.9562
rfoot -3.94126 17.7786
rtoes -21.9969
lfemur -70.9671 -2.99065 -23.1899
ltibia 88.0482
lfoot 12.965 4.71138
ltoes -39.6661
134
root 14.4929 12.2961 -0.102933 163.356 88.0294 158.631
lowerback 14.3751 -0.581905 0.764286
upperback 6.03963 -0.36761 -0.248307
thorax -1.69895 -0.0398544 -0.637167
lowerneck -16.519 -2.2096 -5.6686
upperneck -2.1372 -1.63363 0.515404
head 2.22777 -0.665035 1.05552
rclavicle -7.1314e-015 -1.6201e-014
rhumerus 37.9386 -20.8912 -112.615
rradius 41.6631
rwrist 152.274
rhand -39.7632 -58.5048
rfingers 7.12502
rthumb -12.7395 -88.0962
lclavicle -7.1314e-015 -1.6201e-014
lhumerus -149.644 186.368 -84.6785
lradius 33.0014
lwrist 54.1726
lhand 41.6499 -373.408
lfingers 7.12502
lthumb 63.748 -4.27489
rfemur -65.965 0.549578 20.2932
rtibia 88.6751
rfoot -3.32968 17.569
rtoes -22.8427
lfemur -68.5291 -2.14841 -23.525
ltibia 88.8472
lfoot 13.1972 5.62555
ltoes -40.2466
135
root 14.3235 12.1755 -0.127314 180.913 87.4246 178.921
lowerback 13.4635 -0.721629 1.28543
upperback 5.23358 -0.559061 -0.408204
thorax -2.06497 -0.158567 -1.07045
lowerneck -16.1807 -2.64231 -5.64622
upperneck -4.85615 -2.16666 0.971852
head 1.27064 -0.823221 1.1595
rclavicle 8.19987e-016 2.03754e-015
rhumerus 50.2723 -15.1339 -116.41
rradius 34.3844
rwrist 152.306
rhand -42.5787 -73.4952
rfingers 7.12502
rthumb -15.4526 -257.102
lclavicle 8.19987e-016 2.03754e-015
lhumerus -135.906 195.831 -93.9453
lradius 34.315
lwrist 55.2474
lhand 1.92284 -377.056
lfingers 7.12502
lthumb 27.4308 10.9671
rfemur -64.03 0.271585 20.852
rtibia 89.5477
rfoot -3.57246 17.2976
rtoes -19.6126
lfemur -66.5446 -1.81636 -23.5689
ltibia 89.5189
lfoot 13.2537 6.21468
ltoes -40.4834
136
root 14.195 12.1515 -0.160721 190.352 86.3837 190.46
lowerback 13.0934 -1.06781 1.0553
upperback 3.80242 -1.10823 0.037827
thorax -3.36355 -0.481263 -0.385866
lowerneck -15.9218 -2.89125 -5.89413
upperneck -6.69389 -2.40574 0.936112
head 0.627397 -0.872462 1.17516
rclavicle 5.91384e-015 -5.41688e-015
rhumerus 60.1429 -5.71064 -108.634
rradius 26.1125
rwrist 125.51
rhand -43.4083 -7.26454
rfingers 7.12502
rthumb -16.2516 -396.603
lclavicle 5.91384e-015 -5.41688e-015
lhumerus -121.695 200.893 -110.93
lradius 34.3716
lwrist 59.4981
lhand -39.5549 -375.302
lfingers 7.12502
lthumb -12.5387 14.3014
rfemur -62.011 -0.821411 21.3718
rtibia 89.5499
rfoot -3.67179 16.9226
rtoes -16.9982
lfemur -64.856 -1.86864 -23.4222
ltibia 89.8163
lfoot 12.7127 5.47948
ltoes -39.2378
137
root 14.1608 12.3101 -0.217175 196.772 85.9865 200.477
lowerback 12.9836 -1.40303 0.951799
upperback 3.49076 -1.5578 0.526186
thorax -3.61983 -0.711365 0.254708
lowerneck -16.4632 -3.47203 -6.68115
upperneck -6.84435 -2.9767 1.41241
head 0.713701 -1.11892 1.43268
rclavicle -4.61087e-015 -7.20051e-015
rhumerus 72.9478 6.04999 -76.0572
rradius 29.5273
rwrist 44.6891
rhand -25.168 6.84737
rfingers 7.12502
rthumb 1.34934 -383.128
lclavicle -4.61087e-015 -7.20051e-015
lhumerus -109.811 194.733 -122.037
lradius 40.4691
lwrist 64.8959
lhand -39.1901 -377.352
lfingers 7.12502
lthumb -12.1869 12.2727
rfemur -56.5378 -1.81988 21.7631
rtibia 87.4043
rfoot -3.68513 16.1873
rtoes -17.6684
lfemur -59.9814 -1.13743 -23.1664
ltibia 88.2733
lfoot 9.46837 7.65032
ltoes -48.395
138
root 14.1829 12.6603 -0.277671 213.816 85.4079 223.214
lowerback 14.5938 -1.2034 2.95754
upperback 3.51567 -0.956827 0.405489
thorax -4.50146 -0.42421 -1.07744
lowerneck -13.8138 -3.82982 -6.62969
upperneck -8.05291 -3.68069 1.87663
head -0.0750433 -1.45936 1.56109
rclavicle 2.14936e-015 -1.36167e-014
rhumerus 82.2979 0.0201492 -62.0145
rradius 37.9904
rwrist 1.40373
rhand -16.3453 3.85467
rfingers 7.12502
rthumb 9.86702 -385.894
lclavicle 2.14936e-015 -1.36167e-014
lhumerus -100.555 187.484 -128.719
lradius 45.0523
lwrist 68.1598
lhand -37.1935 -380.332
lfingers 7.12502
lthumb -10.2613 9.39772
rfemur -46.6008 -2.54603 23.0151
rtibia 82.5406
rfoot -4.6786 14.9419
rtoes -17.4414
lfemur -51.2269 0.455568 -21.3755
ltibia 84.9831
lfoot 5.87786 7.95287
ltoes -53.3594
